<svg xmlns="http://www.w3.org/2000/svg" viewBox="0 0 540 490" aria-label="Haakhuis.nl">
  <!-- Haakhuis-logo: twee H's, de linkerstam is een haaknaald -->
  <g fill="none" stroke="#414040" stroke-linecap="round">
    <path d="M106,76 C103,46 83,42 79,58 C76,71 92,75 99,64" stroke-width="13"/>
    <path d="M105,70 C112,122 112,192 104,252" stroke-width="21"/>
    <path d="M262,78 C270,162 270,302 260,388" stroke-width="22"/>
    <path d="M108,164 C160,157 210,157 256,162" stroke-width="18"/>
    <path d="M438,198 C444,262 444,332 438,390" stroke-width="21"/>
    <path d="M266,300 C325,293 380,293 432,298" stroke-width="18"/>
  </g>
  <g fill="#414040" font-family="Caveat, 'Segoe Script', 'Bradley Hand', cursive" font-size="92">
    <text x="118" y="256">aak</text>
    <text x="280" y="394">uis</text>
    <text x="452" y="394">.nl</text>
  </g>
</svg>
